<?xml version="1.0" encoding="UTF-8" standalone="no"?><!DOCTYPE svg PUBLIC "-//W3C//DTD SVG 1.1//EN" "http://www.w3.org/Graphics/SVG/1.1/DTD/svg11.dtd"><svg width="100%" height="100%" viewBox="0 0 2250 2250" version="1.1" xmlns="http://www.w3.org/2000/svg" xmlns:xlink="http://www.w3.org/1999/xlink" xml:space="preserve" xmlns:serif="http://www.serif.com/" style="fill-rule:evenodd;clip-rule:evenodd;stroke-linejoin:round;stroke-miterlimit:2;"><g><g><path d="M360.45,729.874c15.079,-35.514 30.158,-71.027 45.237,-106.541c69.506,52.173 182.601,136.907 322.643,241.01c32.247,23.972 78.339,52.021 130.939,61.025c29.01,4.953 70.816,6.048 112.316,-18.45c39.992,-23.608 62.039,-64.097 74.815,-98.411c17.627,-47.344 21.687,-94.257 14.681,-140.156c-8.405,-55.061 -29.309,-100.377 -51.456,-135.676c-31.68,-50.522 -70.5,-87.614 -105.442,-114.412c-103.283,-79.568 -206.566,-159.135 -309.848,-238.703c13.619,-32 27.239,-63.999 40.859,-95.999c105.11,81.505 210.221,163.01 315.332,244.514c54.97,42.431 108.47,96.502 151.758,165.993c34.59,55.527 63.229,121.055 75.8,197.118c11.035,66.767 6.133,134.239 -18.371,202.009c-18.61,51.47 -50.368,108.372 -107.59,142.429c-57.243,34.069 -116.085,36.571 -164.978,29.135c-74.712,-11.362 -141.102,-49.214 -192.232,-86.928c-72.467,-53.453 -190.128,-140.41 -334.463,-247.957Zm-283.891,422.257c162.004,-375.067 324.009,-750.134 486.014,-1125.2c37.425,29.168 74.85,58.336 112.276,87.504c-158.075,375.727 -316.15,751.455 -474.225,1127.18c-41.355,-29.828 -82.71,-59.657 -124.065,-89.485Z" style="fill:url(#_Linear1);fill-rule:nonzero;"/><path d="M1384.5,2100.68c-71.555,-49.551 -146.478,-117.33 -204.048,-210c-48.233,-77.641 -85.726,-167.023 -109.933,-268.841c36.996,-10.174 73.993,-20.349 110.989,-30.523c14.678,70.123 40.27,149.009 86.213,222.116c46.36,73.772 105.915,127.368 161.349,166.106c51.259,35.82 118.733,71.022 184.731,63.531c64.097,-7.275 93.267,-54.686 107.431,-102.086c11.536,-38.602 18.2,-86.052 6.3,-137.313c-11.856,-51.065 -32.916,-93.881 -53.33,-126.951c-30.305,-49.093 -61.68,-91.535 -87.343,-123.98c-32.085,-40.563 -64.833,-83.172 -97.518,-127.016c-33.38,-44.777 -60.99,-90.155 -83.411,-134.937c-23.764,-47.462 -38.401,-96.669 -44.753,-146.472c-6.303,-49.423 -0.451,-102.956 19.045,-159.878c15.603,-45.554 42.293,-93.056 90.677,-117.811c46.976,-24.034 96.761,-21.977 140.009,-11.522c62.403,15.086 119.92,50.089 165.87,84.783c58.773,44.376 114.349,99.589 160.617,168.947c37.733,56.562 72.214,123.66 94.96,201.929c-31.867,7.909 -63.734,15.819 -95.6,23.728c-15.72,-51.322 -39.141,-110.231 -75.023,-165.96c-34.9,-54.204 -77.847,-95.319 -119.53,-126.555c-44.903,-33.65 -100.872,-65.27 -154.884,-62.898c-52.951,2.325 -79.716,38.774 -93.745,81.024c-13.874,41.782 -14.635,82.01 -4.662,119.96c12.679,48.251 34.606,89.384 53.593,119.322c30.6,48.248 61.975,89.993 86.893,121.22c30.126,37.755 62.653,79.938 96.603,125.976c32.82,44.506 60.256,90.116 82.775,135.872c22.557,45.834 38.445,96.403 45.796,151.797c8.427,63.503 -1.776,124.53 -16.45,175.272c-23.759,82.154 -70.226,162.459 -166.104,181.089c-98.914,19.22 -203.611,-31.825 -287.517,-89.929Z" style="fill:url(#_Linear2);fill-rule:nonzero;"/></g></g><defs><linearGradient id="_Linear1" x1="0" y1="0" x2="1" y2="0" gradientUnits="userSpaceOnUse" gradientTransform="matrix(2241.03,1282.18,-1416.19,2475.26,318.465,-455.662)"><stop offset="0" style="stop-color:#b837a3;stop-opacity:1"/><stop offset="1" style="stop-color:#071a9e;stop-opacity:1"/></linearGradient><linearGradient id="_Linear2" x1="0" y1="0" x2="1" y2="0" gradientUnits="userSpaceOnUse" gradientTransform="matrix(2241.03,1282.18,-1416.19,2475.26,318.465,-455.662)"><stop offset="0" style="stop-color:#b837a3;stop-opacity:1"/><stop offset="0.62" style="stop-color:#9b32a2;stop-opacity:1"/><stop offset="0.82" style="stop-color:#5426a0;stop-opacity:1"/><stop offset="1" style="stop-color:#071a9e;stop-opacity:1"/></linearGradient></defs></svg>